<?xml version="1.0" encoding="UTF-8"?>
<svg version="1.1" xmlns="http://www.w3.org/2000/svg" width="1024" height="1024">
<path d="M0 0 C0.71414063 0.52980469 1.42828125 1.05960938 2.1640625 1.60546875 C17.77892283 14.20311503 27.68739353 34.50265332 30.75 54.0625 C32.33857583 79.08256925 25.85166097 101.02219984 9.4375 120.34765625 C2.05544441 128.38037379 -6.42243386 135.01113034 -15.10595703 141.56054688 C-18.76328149 144.34007575 -22.3780548 147.17463251 -26 150 C-31.15519399 154.01513912 -36.31684614 158.0210132 -41.5 162 C-54.40364224 171.90960671 -67.21782434 181.93441085 -80 192 C-93.49603189 202.62773003 -107.01882878 213.21978857 -120.6875 223.625 C-126.736267 228.23142767 -132.70183474 232.92914349 -138.62451172 237.69628906 C-143.00250222 241.21587283 -147.42580351 244.66599904 -151.88696289 248.07983398 C-156.5048082 251.61399154 -161.0989722 255.17787162 -165.6875 258.75 C-166.44619385 259.34063232 -167.2048877 259.93126465 -167.98657227 260.53979492 C-169.54171654 261.75058699 -171.09681049 262.96144369 -172.65185547 264.17236328 C-175.75575418 266.58822789 -178.86188092 269.00121671 -181.96850586 271.41357422 C-183.47719653 272.58662359 -184.98454531 273.76140104 -186.49047852 274.93798828 C-190.05108073 277.71912968 -193.62426125 280.47731745 -197.2421875 283.18359375 C-198.22783691 283.93056519 -198.22783691 283.93056519 -199.23339844 284.69262695 C-200.46072448 285.6219922 -201.69540891 286.54174867 -202.93847656 287.44995117 C-204.76578897 288.79847651 -204.76578897 288.79847651 -207 291 C-207 292.32 -207 293.64 -207 295 C-190.57555831 293.4529391 -174.24871816 291.20448302 -157.90913033 288.95621967 C-153.99372565 288.41799577 -150.07790701 287.88279805 -146.16215515 287.34710693 C-139.56981024 286.44476284 -132.97779981 285.54000665 -126.38598633 284.63378906 C-118.88287287 283.60232053 -111.37923443 282.57474414 -103.87530148 281.54925585 C-95.76916246 280.4413612 -87.66347405 279.33019802 -79.55799246 278.2175045 C-77.17887622 277.89104968 -74.79969484 277.56507281 -72.42050552 277.239151 C-50.7435922 274.2693795 -50.7435922 274.2693795 -29.10693359 271.02148438 C-28.16879287 270.87534069 -27.23065214 270.72919701 -26.26408291 270.57862473 C-22.20788445 269.94428407 -18.15531122 269.29576261 -14.10725403 268.61138916 C-6.65348144 267.39185925 0.59764938 266.78597236 8.1472168 266.75097656 C9.33334297 266.74379923 9.33334297 266.74379923 10.54343128 266.7364769 C20.7163375 266.83422339 28.42031912 270.3215126 36 277 C36.61746094 277.52464844 37.23492188 278.04929687 37.87109375 278.58984375 C45.31333876 285.39189564 49.44230705 294.75513596 50.3359375 304.76171875 C50.47474901 318.71227507 47.59034375 329.36955517 38 340 C33.91702267 343.9643436 29.47023472 347.48713638 25 351 C23.85934753 351.90491329 22.71872247 352.80986113 21.578125 353.71484375 C19.26476289 355.54289202 16.94349807 357.36034032 14.6171875 359.171875 C10.80289945 362.1457267 7.02400657 365.16277622 3.25 368.1875 C2.61537842 368.69587402 1.98075684 369.20424805 1.3269043 369.72802734 C-1.34179468 371.86674967 -4.00904791 374.00726474 -6.67578125 376.1484375 C-11.91615855 380.35103141 -17.19015683 384.50852961 -22.47680664 388.65258789 C-26.83854874 392.07619485 -31.17450607 395.53074527 -35.5 399 C-43.75885564 405.62222468 -52.08287767 412.15989505 -60.42578125 418.67578125 C-66.66751604 423.55703575 -72.8596561 428.49162541 -79 433.5 C-86.82361366 439.88133442 -94.75071535 446.12198695 -102.70898438 452.33398438 C-109.46772817 457.6130488 -116.17536107 462.94358093 -122.8125 468.375 C-129.18591072 473.58833131 -135.67192996 478.63541253 -142.24145508 483.59912109 C-144.16806652 485.05708471 -146.08579138 486.52580414 -148 488 C-148.60166992 488.45503906 -149.20333984 488.91007812 -149.82324219 489.37890625 C-151.27328484 490.51586187 -152.64538087 491.7508808 -154 493 C-154 493.99 -154 494.98 -154 496 C-150.17773159 497.31467658 -146.80446545 496.85751974 -142.82348633 496.46191406 C-142.09890574 496.39172341 -141.37432516 496.32153276 -140.62778759 496.24921513 C-138.19513349 496.01158586 -135.7636341 495.76376558 -133.33203125 495.515625 C-131.5844354 495.34193726 -129.83679417 495.16870564 -128.08911133 494.99589539 C-123.32547591 494.5225313 -118.56289214 494.03925065 -113.80047989 493.5537529 C-110.8152482 493.25027938 -107.82972395 492.94986651 -104.84408569 492.65042114 C-80.86721761 490.24363004 -56.90972133 487.6906089 -32.96875 484.94921875 C-31.86640203 484.82315121 -30.76405407 484.69708366 -29.62830162 484.56719589 C-18.8611929 483.33476462 -8.09544494 482.09167512 2.66702843 480.81936169 C6.66385379 480.34817674 10.66141472 479.88344377 14.65911865 479.41977882 C16.50317982 479.20413013 18.34688026 478.98536801 20.19015503 478.76309776 C51.02450799 475.0454325 51.02450799 475.0454325 62 481 C63.03125 481.556875 64.0625 482.11375 65.125 482.6875 C72.21976824 488.39416141 78.06447723 494.91514002 80 504 C81.02198398 514.46469015 80.67914667 523.87231913 74.08203125 532.51171875 C66.83194029 540.89102742 58.3790953 547.99559522 49.69921875 554.8359375 C46.58294725 557.33436646 43.53979091 559.90956564 40.5 562.5 C36.0129313 566.31876809 31.47297725 570.05007432 26.85546875 573.7109375 C21.56222577 577.9542212 16.34551582 582.2912753 11.11328125 586.609375 C7.83532249 589.3142327 4.54587 592.00447845 1.25 594.6875 C-2.64754083 597.86784629 -6.48598951 601.11020528 -10.3125 604.375 C-14.74864592 608.15776518 -19.26590083 611.80545485 -23.875 615.375 C-29.55837978 619.78019313 -34.99232688 624.41914351 -40.39404297 629.16357422 C-45.04487499 633.22718605 -49.83427417 637.05879095 -54.72387695 640.8293457 C-59.18596422 644.29580736 -63.44608197 647.95571804 -67.6875 651.6875 C-86.38559806 668.01538286 -86.38559806 668.01538286 -95 668 C-101.74635841 667.16810107 -105.46811147 664.09453043 -109.6875 658.9375 C-111.73717316 655.911792 -112.17602588 653.25675133 -112.25 649.6875 C-112.27578125 648.94886719 -112.3015625 648.21023438 -112.328125 647.44921875 C-111.50349554 641.29394882 -107.53246256 636.96556921 -103.5625 632.5 C-102.48030333 631.26056108 -101.39827682 630.02097357 -100.31640625 628.78125 C-99.76484863 628.15347656 -99.21329102 627.52570312 -98.64501953 626.87890625 C-96.07214966 623.94022912 -93.53718966 620.9694702 -91 618 C-90.00020133 616.8331608 -89.00020079 615.66649453 -88 614.5 C-87.2575 613.63375 -87.2575 613.63375 -86.5 612.75 C-82 607.5 -82 607.5 -80.49731445 605.74780273 C-79.50503045 604.58951786 -78.51396628 603.43018677 -77.52416992 602.26977539 C-74.9155403 599.21483663 -72.28355176 596.18488323 -69.61328125 593.18359375 C-69.06091797 592.55646484 -68.50855469 591.92933594 -67.93945312 591.28320312 C-66.88206684 590.08364725 -65.81732269 588.89052332 -64.74414062 587.70507812 C-61.98525175 584.55792884 -60.33851968 582.22755973 -60 578 C-65.94981566 577.72799401 -71.16835426 578.73700846 -76.9453125 580.10546875 C-78.44454254 580.45168777 -78.44454254 580.45168777 -79.97406006 580.80490112 C-83.35981283 581.59034732 -86.74244446 582.38840375 -90.125 583.1875 C-91.9230307 583.60840408 -91.9230307 583.60840408 -93.75738525 584.03781128 C-122.67830151 590.80816006 -151.49932592 597.98998864 -180.32699585 605.14460754 C-182.17372549 605.60291913 -184.02045604 606.06122702 -185.8671875 606.51953125 C-187.24249571 606.86088136 -187.24249571 606.86088136 -188.64558792 607.20912743 C-202.17633923 610.56659781 -215.71349365 613.89690807 -229.2578125 617.19921875 C-230.55459867 617.51540287 -230.55459867 617.51540287 -231.87758255 617.83797455 C-240.46163818 619.93037906 -249.04667528 622.01873326 -257.63244057 624.10411072 C-261.8228507 625.12204464 -266.01305316 626.1408308 -270.203125 627.16015625 C-271.02372784 627.35976204 -271.84433067 627.55936783 -272.68980026 627.76502228 C-284.31282706 630.59407062 -295.92359824 633.46944573 -307.526474 636.37999344 C-309.95944527 636.98984483 -312.39278974 637.59818106 -314.82629395 638.2059021 C-316.0074667 638.50089505 -316.0074667 638.50089505 -317.21250153 638.80184746 C-318.77860056 639.19292448 -320.34471671 639.58393297 -321.91085052 639.97487068 C-326.37627637 641.09058542 -330.83892539 642.21662697 -335.29964828 643.35098934 C-338.03343186 644.0436655 -340.76958027 644.72661743 -343.50641632 645.40712166 C-345.33525461 645.86503053 -347.16109483 646.33486407 -348.98675537 646.80528259 C-367.88907459 651.47642905 -385.54747628 650.78959948 -402.90625 641.43359375 C-419.0947019 631.63412357 -429.59710433 618.13829261 -435 600 C-438.78361173 582.40010284 -435.7264405 564.43044482 -426.2109375 549.23046875 C-419.24619433 539.05406839 -410.49018056 531.33331782 -400.125 524.8125 C-398.61709694 523.85040234 -397.10928706 522.88815863 -395.6015625 521.92578125 C-394.8374707 521.44061035 -394.07337891 520.95543945 -393.28613281 520.45556641 C-389.67727693 518.15783053 -386.08938718 515.82798111 -382.5 513.5 C-381.07301272 512.57667444 -379.64592934 511.6534974 -378.21875 510.73046875 C-375.4884807 508.96393442 -372.75934714 507.19566804 -370.03125 505.42578125 C-361.66620167 500.00168199 -353.27688722 494.61687258 -344.875 489.25 C-333.72157146 482.12325731 -322.62881741 474.90671715 -311.54980469 467.66503906 C-299.8252125 460.00880403 -288.03436424 452.45673177 -276.23681641 444.91357422 C-268.13450236 439.73130206 -260.0514425 434.52031194 -251.98291016 429.28564453 C-249.25396789 427.51630078 -246.52264268 425.75065728 -243.79077148 423.98583984 C-242.39968411 423.08579097 -241.00984954 422.18380255 -239.62133789 421.27978516 C-235.60052226 418.66450681 -231.55614899 416.09394229 -227.484375 413.55859375 C-226.10052612 412.68630127 -226.10052612 412.68630127 -224.6887207 411.79638672 C-222.88190382 410.65768643 -221.06808267 409.53001048 -219.24682617 408.41455078 C-218.02443237 407.63893799 -218.02443237 407.63893799 -216.77734375 406.84765625 C-216.04765381 406.39398682 -215.31796387 405.94031738 -214.56616211 405.47290039 C-214.04932861 404.98684326 -213.53249512 404.50078613 -213 404 C-213 402.68 -213 401.36 -213 400 C-228.97354141 402.84173296 -244.94679373 405.68508504 -260.91973782 408.5301733 C-269.06559616 409.98106808 -277.21159209 411.43118519 -285.35778272 412.88021314 C-291.10145533 413.90197266 -296.84491793 414.92490816 -302.58826983 415.9484688 C-306.14895347 416.58296484 -309.70974904 417.21681938 -313.27079391 417.84928513 C-327.73693797 420.41877601 -342.19550043 423.01584168 -356.62939453 425.76220703 C-358.88914955 426.18925641 -361.14891982 426.61622511 -363.40870667 427.04310608 C-367.50814666 427.81808805 -371.60367952 428.6103234 -375.69761658 429.4138031 C-396.04302001 433.32195636 -412.82900774 433.47014078 -431 422 C-442.64457279 413.77916373 -449.62578451 400.88140437 -452.375 387.0625 C-454.39007837 372.20129703 -450.7702364 358.1212521 -442 346 C-430.91918912 332.98706562 -418.30428731 321.226156 -406.1875 309.1875 C-402.47222924 305.49604148 -398.75873504 301.80282806 -395.04943275 298.10537148 C-393.58542571 296.64774079 -392.11839611 295.19320334 -390.65116882 293.73881531 C-386.82474516 289.92640886 -383.04090749 286.12706822 -379.5246582 282.0246582 C-375.45481622 277.28081394 -371.01973704 272.90725946 -366.58444214 268.50927734 C-365.02526273 266.9630726 -363.46941379 265.41358104 -361.91430664 263.86328125 C-358.05434197 260.01655775 -354.18890098 256.17535284 -350.3236084 252.33398438 C-347.04550558 249.07574304 -343.76955008 245.8153701 -340.49630737 242.55224609 C-338.97690534 241.03923948 -337.45448297 239.5293203 -335.93188477 238.01953125 C-331.33366653 233.44535968 -326.8822353 228.81212918 -322.66137695 223.88623047 C-319.64072425 220.45675761 -316.37481298 217.27297916 -313.125 214.0625 C-312.39684082 213.33812744 -311.66868164 212.61375488 -310.91845703 211.86743164 C-307.83943049 208.80457576 -304.75441677 205.74777689 -301.66992188 202.69042969 C-299.40284542 200.44155883 -297.13887034 198.18959762 -294.875 195.9375 C-294.18937988 195.26017822 -293.50375977 194.58285645 -292.79736328 193.88500977 C-288.94193971 190.04895306 -285.30785666 186.09744089 -281.75561523 181.98046875 C-278.7623228 178.60380511 -275.55335217 175.45072484 -272.34375 172.28125 C-271.2848053 171.22798523 -271.2848053 171.22798523 -270.20446777 170.15344238 C-267.22102625 167.18616234 -264.2315929 164.22494637 -261.24267578 161.26318359 C-259.04509421 159.08381535 -256.85062062 156.90135053 -254.65625 154.71875 C-253.66063049 153.735578 -253.66063049 153.735578 -252.64489746 152.73254395 C-249.48518371 149.58920073 -246.43864177 146.40308127 -243.52734375 143.02734375 C-239.84663747 138.76366284 -235.91099955 134.80152703 -231.90625 130.84375 C-230.78071716 129.72389709 -230.78071716 129.72389709 -229.63244629 128.5814209 C-226.45783496 125.42298888 -223.27724084 122.27060721 -220.09716797 119.11767578 C-217.76059639 116.79930255 -215.42712001 114.4778448 -213.09375 112.15625 C-212.3862561 111.45705444 -211.67876221 110.75785889 -210.9498291 110.03747559 C-207.67971068 106.78329853 -204.51358218 103.49420302 -201.5 100 C-197.82967184 95.74430995 -193.90186495 91.79249957 -189.90625 87.84375 C-189.15589478 87.0971814 -188.40553955 86.35061279 -187.63244629 85.5814209 C-184.45783496 82.42298888 -181.27724084 79.27060721 -178.09716797 76.11767578 C-175.76059639 73.79930255 -173.42712001 71.4778448 -171.09375 69.15625 C-170.3862561 68.45705444 -169.67876221 67.75785889 -168.9498291 67.03747559 C-165.70226744 63.80574533 -162.55698025 60.5420286 -159.56835938 57.06835938 C-155.54154253 52.39978017 -151.19229965 48.08530617 -146.8125 43.75 C-145.95116455 42.89245117 -145.0898291 42.03490234 -144.20239258 41.15136719 C-140.54986017 37.51505061 -136.89136365 33.88475629 -133.23339844 30.25390625 C-130.54934844 27.58802403 -127.86836759 24.9190819 -125.1875 22.25 C-124.37063721 21.44143555 -123.55377441 20.63287109 -122.7121582 19.79980469 C-118.45374631 15.5594799 -114.36299887 11.24778659 -110.46879578 6.66932678 C-81.93790256 -25.75681778 -32.53737323 -24.37860246 0 0 Z " fill="#83E14A" transform="translate(694,143)"/>
<path d="M0 0 C7.67938081 5.44588047 15.19944448 13.49542826 17 23 C18.18486161 35.2699002 16.71958719 45.54476875 8.6875 55.4375 C1.37816971 63.01405312 -7.0330508 66.09687696 -17.375 67.4375 C-28.36564555 66.11104278 -37.60966785 62.48024547 -44.77734375 53.86328125 C-51.19816874 44.86784673 -53.19052057 36.00250326 -52 25 C-49.4708801 14.81867115 -43.99691205 5.34200898 -34.91015625 -0.296875 C-24.21473427 -5.79396339 -10.4837293 -6.29023758 0 0 Z " fill="#83E14A" transform="translate(555,821)"/>
</svg>
