<?xml version="1.0" encoding="UTF-8"?>
<svg version="1.1" xmlns="http://www.w3.org/2000/svg" width="512" height="512">
<path d="M0 0 C1.05440089 -0.00480972 1.05440089 -0.00480972 2.13010281 -0.0097166 C4.47332877 -0.01798366 6.81629692 -0.01210398 9.15952682 -0.00622082 C10.86142321 -0.00924301 12.56331824 -0.01313284 14.26521087 -0.01781338 C18.93284215 -0.02809349 23.60039663 -0.02591151 28.26803422 -0.02163279 C33.3056701 -0.01916556 38.34328749 -0.02817975 43.3809166 -0.03567028 C53.24720182 -0.04841988 63.11345984 -0.0502106 72.97975191 -0.04787002 C81.00053354 -0.04608681 89.02130691 -0.04783656 97.04208755 -0.05209446 C98.18376315 -0.05268965 99.32543875 -0.05328484 100.50171058 -0.05389806 C102.82107053 -0.05510982 105.14043049 -0.05632396 107.45979044 -0.05754044 C129.21176108 -0.06841721 150.96371621 -0.06625297 172.71568772 -0.06015559 C192.60782707 -0.05498765 212.49991742 -0.06623842 232.39204708 -0.08525381 C252.82298713 -0.10463433 273.25390401 -0.11288775 293.68485332 -0.10913056 C305.15292138 -0.10721867 316.62094777 -0.1097048 328.08900833 -0.1238451 C337.85315298 -0.13576266 347.6172303 -0.13715963 357.38137588 -0.12505493 C362.36106711 -0.11916861 367.34063521 -0.11806002 372.32031822 -0.13005733 C376.88384865 -0.14092402 381.44715324 -0.13780338 386.01067314 -0.12379565 C387.65666612 -0.12115087 389.30267686 -0.12350834 390.94865242 -0.13153151 C408.84200103 -0.21265846 424.0909668 3.20698096 437.35306931 15.98103809 C438.09428024 16.73127247 438.83549118 17.48150684 439.59916306 18.25447559 C440.24756149 18.88095997 440.89595993 19.50744434 441.56400681 20.15291309 C452.17971729 31.16351872 456.15014141 47.15531524 456.01884079 62.09480762 C455.40147261 78.7022103 449.21974224 93.61530594 437.21439743 105.21053028 C426.50029691 115.06617182 413.16598585 120.36770033 398.5914669 120.38869667 C397.89458167 120.3910489 397.19769644 120.39340113 396.47969347 120.39582464 C394.13901798 120.40249406 391.79839826 120.40205704 389.45771408 120.40164661 C387.76467059 120.40494653 386.07162788 120.40867237 384.37858617 120.41278809 C379.72139253 120.42280189 375.06421177 120.4265239 370.40700889 120.4291774 C365.38562584 120.43308237 360.36425298 120.44266067 355.34287643 120.45139027 C343.21278448 120.47115063 331.08269169 120.48122096 318.95258766 120.49011806 C313.23834718 120.4945022 307.52410761 120.49986874 301.80986786 120.50510693 C282.81034729 120.5221198 263.81082729 120.53661308 244.81130028 120.54385567 C239.8810501 120.54576552 234.95079993 120.54768586 230.02054977 120.54964161 C228.18249309 120.55036722 228.18249309 120.55036722 226.30730395 120.55110749 C206.46549019 120.55940442 186.62373678 120.5847354 166.78194936 120.61722229 C146.4042038 120.65031423 126.02648889 120.66830642 105.64871633 120.67149991 C94.21010876 120.67366317 82.77158917 120.68238479 71.33300781 120.70796108 C61.58936384 120.72969733 51.84582921 120.73770414 42.10216375 120.7279943 C37.13423152 120.72345792 32.16652477 120.72529724 27.19862366 120.74475574 C22.64216885 120.76244781 18.08610299 120.76134094 13.5296437 120.74585845 C11.88955928 120.74349151 10.2494475 120.74775803 8.60940476 120.7596871 C-10.54565659 120.89027726 -26.66040613 116.53362609 -40.89302444 102.94978809 C-54.46953303 88.35821345 -57.22291351 71.04864849 -56.58003616 51.94783497 C-55.56286153 36.65972792 -47.4202859 23.47887051 -36.40083694 13.25447559 C-25.85597979 5.14651838 -13.37833387 0.00931369 0 0 Z M-11.73286819 47.19978809 C-15.40131376 51.71876319 -16.77184384 56.66625083 -16.27583694 62.44197559 C-14.80777864 68.83851537 -12.43748376 72.57877257 -7.70552444 76.95760059 C0.42811236 81.53449453 10.46774946 80.53910599 19.49599838 80.515172 C21.11356249 80.51819531 22.73112516 80.5220857 24.34868532 80.52676457 C28.77848675 80.53703002 33.20820712 80.53486646 37.63801515 80.53058398 C42.42133285 80.52811414 47.20463117 80.53713407 51.98794174 80.54462147 C61.3527653 80.55736294 70.71756019 80.55916288 80.08239096 80.5568212 C87.69460378 80.55503741 95.30680791 80.556789 102.9190197 80.56104565 C104.00285467 80.56164084 105.08668963 80.56223602 106.20336809 80.56284925 C108.40524097 80.56406101 110.60711385 80.56527515 112.80898673 80.56649163 C133.45212521 80.57736486 154.09524736 80.57520559 174.73838676 80.56910678 C193.6198033 80.56393678 212.50116827 80.57519567 231.38257461 80.594205 C250.77618553 80.61358016 270.16977204 80.62184003 289.5633927 80.61808175 C300.4489951 80.61616935 311.33455359 80.61866113 322.22014809 80.63279629 C331.48623079 80.64470687 340.75224254 80.6461185 350.01832622 80.63400612 C354.74462064 80.62811545 359.47078528 80.6270233 364.19707108 80.63900852 C368.52669121 80.64986019 372.85607305 80.64677248 377.18568201 80.63274684 C378.74883751 80.63009797 380.31201166 80.63247243 381.87514888 80.6404827 C391.34282534 80.68561803 400.11509476 80.47338525 408.47416306 75.56697559 C412.6706 71.00026481 414.82052713 66.49976364 415.09916306 60.25447559 C414.81539994 53.89426784 412.70127881 49.25148556 408.09916306 44.87947559 C401.79629567 40.78261179 396.26862214 40.13030737 388.76400661 40.12584114 C388.09793743 40.1240881 387.43186825 40.12233507 386.74561515 40.12052891 C384.5158432 40.11588053 382.28613679 40.1183314 380.05636215 40.12076283 C378.44067577 40.11889427 376.82498984 40.11659339 375.20930463 40.1138975 C370.77081415 40.10777864 366.33234251 40.1079132 361.89384878 40.10909188 C357.10641335 40.10929586 352.31898397 40.10377735 347.53155136 40.09903431 C338.15262132 40.09072676 328.77369756 40.08797942 319.39476415 40.08742193 C311.77150839 40.08694683 304.14825472 40.08489237 296.52499962 40.08172131 C274.91372729 40.07291451 253.30245993 40.06830198 231.69118579 40.06905178 C229.94346779 40.06911171 229.94346779 40.06911171 228.16044235 40.06917286 C226.41059157 40.06923418 226.41059157 40.06923418 224.62539027 40.06929674 C205.71725337 40.06970324 186.80913637 40.06013284 167.90100523 40.04603449 C148.48828737 40.03167407 129.07557923 40.02476412 109.66285592 40.02562827 C98.76327665 40.02596035 87.86371825 40.02320839 76.96414375 40.01245022 C67.6844326 40.00334963 58.40475179 40.00116635 49.12503811 40.00795964 C44.39081226 40.01122704 39.65664464 40.01127356 34.92242432 40.00260639 C30.58661621 39.99475027 26.25091258 39.99616376 21.91510705 40.00489052 C20.34851436 40.00642746 18.78191392 40.00460204 17.21533038 39.99903045 C1.46960977 39.66700404 1.46960977 39.66700404 -11.73286819 47.19978809 Z " fill="#000000" transform="translate(56.40083694458008,391.7455244064331)"/>
<path d="M0 0 C1.86995138 -0.00436184 3.73990098 -0.0095498 5.60984802 -0.01548767 C10.62365073 -0.02871846 15.63737737 -0.0294753 20.6511941 -0.02692437 C24.85399526 -0.02584555 29.05678159 -0.03076013 33.25957954 -0.03552979 C43.17159978 -0.04656581 53.08358208 -0.0470933 62.99560547 -0.04101562 C73.19952916 -0.03495534 83.40331569 -0.04735234 93.607216 -0.06858569 C102.40258029 -0.08621053 111.19790091 -0.09220239 119.9932822 -0.08894795 C125.23202125 -0.08713929 130.47066199 -0.08973137 135.70938492 -0.10366249 C140.62618469 -0.11625367 145.54276957 -0.11428455 150.45956612 -0.1012516 C152.25864167 -0.09889061 154.05773245 -0.10160336 155.85679054 -0.10987473 C174.67795757 -0.19014929 174.67795757 -0.19014929 183.26513672 4.9621582 C187.9869338 9.95377226 189.70207884 14.50990141 189.89013672 21.3996582 C189.65439808 27.64673211 188.22787343 31.21154527 184.14013672 35.9621582 C178.85730483 40.50785075 174.27569153 41.7181085 167.42236328 41.65992737 C166.23505127 41.66778091 166.23505127 41.66778091 165.02375317 41.67579311 C162.38009943 41.68972487 159.73693604 41.68246057 157.09326172 41.67529297 C155.19392973 41.68103733 153.29460138 41.68812085 151.39527893 41.69644165 C147.30780658 41.71154855 143.2204648 41.71732949 139.13296509 41.71591377 C132.65961476 41.71387751 126.18643926 41.73346712 119.71313477 41.75608826 C107.12788894 41.79706948 94.54265682 41.81565774 81.95735931 41.83226013 C65.96729737 41.85460725 49.97727608 41.88834143 33.98727989 41.93945926 C27.56343213 41.95929066 21.13967555 41.96895498 14.71579838 41.97041142 C10.70206391 41.97317956 6.68837898 41.98404913 2.67466545 41.99692154 C0.82610475 42.00116877 -1.0224674 42.00208342 -2.87103081 41.9992466 C-29.40027869 41.96323475 -53.12269778 46.78180937 -72.56689453 66.0637207 C-89.82424908 84.09972709 -94.69898726 106.4899829 -94.68920898 130.66748047 C-94.6922447 132.2237864 -94.69576729 133.78009144 -94.69973755 135.33639526 C-94.70759309 138.67516235 -94.71275867 142.01391891 -94.71602821 145.35269356 C-94.72196394 150.63546606 -94.73852663 155.91817213 -94.75737 161.20091248 C-94.76370626 163.0129213 -94.77003189 164.82493015 -94.77634716 166.63693905 C-94.77951297 167.54398677 -94.78267878 168.45103449 -94.78594053 169.3855685 C-94.82795443 181.67500295 -94.86101122 193.96440467 -94.87329102 206.25390625 C-94.88167323 214.55774131 -94.90416351 222.86140982 -94.94264668 231.16516155 C-94.96238951 235.55448096 -94.97481751 239.94355152 -94.96981239 244.33291817 C-94.96516364 248.45927535 -94.97898335 252.58516002 -95.00682449 256.71142197 C-95.01373045 258.222664 -95.0138692 259.73395495 -95.00662422 261.24519539 C-94.96831651 270.13553266 -95.07338944 276.44469074 -101.36376953 283.2355957 C-101.93998047 283.70223633 -102.51619141 284.16887695 -103.10986328 284.6496582 C-103.97804688 285.37282227 -103.97804688 285.37282227 -104.86376953 286.1105957 C-109.90013979 289.59281923 -116.7295159 288.88670125 -122.54736328 288.2746582 C-127.69546413 286.32999942 -131.65040354 282.9543624 -134.54736328 278.2746582 C-136.12098644 273.57376402 -136.79805268 269.4887974 -136.80133057 264.54225159 C-136.80697021 263.22631516 -136.81260986 261.91037872 -136.81842041 260.55456543 C-136.81453236 259.11303655 -136.81043606 257.67150822 -136.80615234 256.22998047 C-136.8088652 254.6982761 -136.81242779 253.16657304 -136.81677246 251.63487244 C-136.82587057 247.48555196 -136.82236101 243.33633126 -136.81601429 239.1870091 C-136.8109327 234.82762725 -136.81565249 230.46825366 -136.81878662 226.10887146 C-136.82242346 218.77943398 -136.8176382 211.45003682 -136.80810547 204.12060547 C-136.79725802 195.68368764 -136.80072054 187.24686678 -136.81175828 178.80995136 C-136.82088305 171.54082213 -136.82209015 164.27172182 -136.81688094 157.00258869 C-136.81378488 152.67282239 -136.8132853 148.34310136 -136.81995392 144.01333809 C-136.82580133 139.93143202 -136.82159777 135.84964856 -136.81016541 131.76775551 C-136.80755624 130.28285677 -136.80821834 128.79794743 -136.81269073 127.31305313 C-136.84827023 114.28174347 -136.10896289 101.05450085 -132.48486328 88.4621582 C-132.27571289 87.72843994 -132.0665625 86.99472168 -131.85107422 86.23876953 C-126.16994487 67.46124656 -116.08741572 51.36363169 -102.54736328 37.2746582 C-101.74298828 36.4187207 -100.93861328 35.5627832 -100.10986328 34.6809082 C-73.35693516 6.92474528 -37.02133579 -0.05821434 0 0 Z " fill="#000000" transform="translate(175.54736328125,68.725341796875)"/>
<path d="M0 0 C4.80124141 3.49331703 8.60933999 7.8338875 12.5234375 12.26171875 C15.98370304 16.14571346 19.67345999 19.78513779 23.375 23.4375 C27.84530799 27.85666157 32.14164261 32.31737365 36.21484375 37.109375 C40.39563988 41.7881607 44.87482005 45.20541409 51.23828125 46.0234375 C59.05506238 46.13656024 63.97865783 44.91530551 69.87109375 39.69921875 C72.71998414 36.91758716 75.44481595 34.06489177 78.03637695 31.0402832 C83.1263564 25.103901 88.56121206 19.53126861 94.07739258 13.99487305 C95.6949271 12.36752785 97.30147534 10.72980393 98.90820312 9.09179688 C99.94986169 8.04361538 100.99215731 6.99606651 102.03515625 5.94921875 C102.50719986 5.46482834 102.97924347 4.98043793 103.46559143 4.48136902 C108.38372277 -0.40449702 113.42141683 -2.81433292 120.25390625 -3.37890625 C126.45174429 -3.20532594 132.35856963 -0.82272639 136.625 3.6875 C141.07222878 9.72929436 141.70834358 16.36761093 140.625 23.6875 C135.14626486 35.95892158 122.95169164 45.60800498 113.59667969 55.01098633 C112.03131193 56.58791683 110.4704322 58.16931506 108.9140625 59.75512695 C89.41522471 79.62120927 89.41522471 79.62120927 75.75 84.5625 C74.70070313 84.95179688 73.65140625 85.34109375 72.5703125 85.7421875 C56.40697771 90.92988912 38.57426026 88.1770578 23.7355957 80.63378906 C18.52271014 77.81539692 14.36329487 74.46518719 10.20263672 70.27539062 C8.23653277 68.29650791 6.2442441 66.34512749 4.25390625 64.390625 C-2.28569102 57.93160729 -8.74227747 51.49182413 -14.73803711 44.52075195 C-16.73119687 42.28859138 -18.86600762 40.26225417 -21.0559082 38.22607422 C-27.27968899 32.38655214 -32.04224318 27.00987956 -32.51171875 18.08984375 C-32.14842111 11.20794845 -30.02440042 6.41259758 -25.1875 1.4375 C-16.9353727 -3.69715698 -8.59085105 -5.1667396 0 0 Z " fill="#000000" transform="translate(371.375,159.3125)"/>
<path d="M0 0 C5.29945106 3.08802599 8.5052363 7.24227139 10.453125 13.0859375 C10.54977855 14.8611311 10.58807448 16.63974236 10.59356689 18.41755676 C10.59927704 19.52367813 10.60498718 20.6297995 10.61087036 21.7694397 C10.61198822 22.98352509 10.61310608 24.19761047 10.61425781 25.44848633 C10.62170517 27.36589378 10.62170517 27.36589378 10.62930298 29.32203674 C10.64241944 32.83041402 10.64887052 36.33877216 10.65331364 39.84717011 C10.65624572 42.03977036 10.6603508 44.23236538 10.66481781 46.424963 C10.67849108 53.28711002 10.68815843 60.14924511 10.6920197 67.01140481 C10.69649947 74.92897085 10.7140442 82.84636417 10.7430203 90.76387769 C10.76464781 96.88627787 10.77472456 103.00862949 10.77606082 109.13106745 C10.77710813 112.78657623 10.78300005 116.44192261 10.80088043 120.09739113 C10.82044618 124.17676878 10.81606791 128.25578568 10.80957031 132.33520508 C10.82339249 134.14722412 10.82339249 134.14722412 10.8374939 135.99584961 C10.80044778 143.41006372 10.10108162 148.00858251 5.140625 153.7734375 C-0.57463476 158.69121916 -5.15273305 159.66081088 -12.578125 159.421875 C-18.08529239 158.79869553 -21.70903642 157.24147684 -25.33203125 152.9921875 C-29.32748066 147.32488337 -30.66435548 142.77029541 -30.68731689 135.83770752 C-30.69302704 134.80048553 -30.69873718 133.76326355 -30.70462036 132.6946106 C-30.70573822 131.5672348 -30.70685608 130.43985901 -30.70800781 129.27832031 C-30.71297272 128.08260406 -30.71793762 126.88688782 -30.72305298 125.65493774 C-30.7351372 122.38200084 -30.74261345 119.1090996 -30.74706364 115.83614445 C-30.75000166 113.78790325 -30.75410785 111.73966755 -30.75856781 109.69142914 C-30.77223171 103.27298359 -30.78190357 96.85455074 -30.7857697 90.43609166 C-30.79024678 83.04550502 -30.80778291 75.65510366 -30.8367703 68.26457334 C-30.85844001 62.53953467 -30.86847681 56.81454793 -30.86981082 51.08946872 C-30.87085514 47.67589856 -30.87668285 44.26250284 -30.89463043 40.84897614 C-30.91172799 37.03621981 -30.90980121 33.22391217 -30.90332031 29.41113281 C-30.9125351 28.29185394 -30.92174988 27.17257507 -30.9312439 26.01937866 C-30.88993829 18.24279599 -30.07096123 11.0601932 -25.234375 4.7109375 C-18.47923488 -1.88710634 -8.86385512 -3.18119954 0 0 Z " fill="#000000" transform="translate(434.546875,0.9140625)"/>
<path d="M0 0 C4.84974831 2.87088695 7.74237782 7.16463345 9.5 12.4375 C9.60168054 14.01627712 9.64836042 15.59891168 9.66113281 17.1809082 C9.67074036 18.14233231 9.6803479 19.10375641 9.69024658 20.09431458 C9.69449646 21.13182358 9.69874634 22.16933258 9.703125 23.23828125 C9.70882507 24.30741257 9.71452515 25.37654388 9.72039795 26.47807312 C9.72984816 28.74180105 9.73638201 31.00554273 9.74023438 33.26928711 C9.74993265 36.72599408 9.78095343 40.18210465 9.8125 43.63867188 C9.81903091 45.83853814 9.82428104 48.03840865 9.828125 50.23828125 C9.8404718 51.26971756 9.8528186 52.30115387 9.86553955 53.36384583 C9.84392705 60.3556721 8.85999569 64.69480231 4.1875 70.125 C-1.6981387 75.18938679 -6.56995754 76.10654787 -14.234375 75.9140625 C-20.09414293 75.0589289 -24.2996263 72.28756621 -27.90234375 67.62109375 C-30.53647328 63.28087321 -31.61297945 59.27859526 -31.66113281 54.27075195 C-31.67074036 53.45923172 -31.6803479 52.64771149 -31.69024658 51.81159973 C-31.69449646 50.94177963 -31.69874634 50.07195953 -31.703125 49.17578125 C-31.70882507 48.27055222 -31.71452515 47.36532318 -31.72039795 46.43266296 C-31.72983573 44.51705082 -31.73637708 42.60142253 -31.74023438 40.68579102 C-31.74990732 37.77786299 -31.78092875 34.87065192 -31.8125 31.96289062 C-31.81903401 30.09635834 -31.82428292 28.22982102 -31.828125 26.36328125 C-31.8404718 25.50358231 -31.8528186 24.64388336 -31.86553955 23.75813293 C-31.83968145 16.63010462 -30.61237802 9.83789019 -26.1875 4.0625 C-19.22620843 -2.73690106 -8.99549224 -3.96759353 0 0 Z " fill="#000000" transform="translate(462.5,281.5625)"/>
</svg>
