<svg xmlns="http://www.w3.org/2000/svg" viewBox="0 0 50 50"><path d="M 25 4 C 13.413593 4 4 13.413593 4 25 C 4 36.586407 13.413593 46 25 46 C 36.586407 46 46 36.586407 46 25 C 46 24.378171 45.959166 23.781074 45.910156 23.203125 A 1.0001 1.0001 0 0 0 44.376953 22.443359 C 43.826171 22.794789 43.19 23 42.5 23 C 41.016987 23 39.768891 22.083144 39.253906 20.791016 A 1.0001 1.0001 0 0 0 37.849609 20.28125 C 37.002044 20.739741 36.035672 21 35 21 C 31.674438 21 29 18.325562 29 15 C 29 13.964328 29.260259 12.997956 29.71875 12.150391 A 1.0001 1.0001 0 0 0 29.208984 10.746094 C 27.916856 10.231109 27 8.983013 27 7.5 C 27 6.81 27.205211 6.1738294 27.556641 5.6230469 A 1.0001 1.0001 0 0 0 26.796875 4.0898438 C 26.218926 4.0408304 25.621829 4 25 4 z M 38 4 A 2 2 0 0 0 36 6 A 2 2 0 0 0 38 8 A 2 2 0 0 0 40 6 A 2 2 0 0 0 38 4 z M 25 6 C 25.142822 6 25.291705 6.0168744 25.435547 6.0214844 C 25.28505 6.5181777 25 6.9539065 25 7.5 C 25 9.4370135 26.137695 10.982725 27.660156 11.960938 C 27.267841 12.905947 27 13.91642 27 15 C 27 19.406438 30.593562 23 35 23 C 36.08358 23 37.094054 22.732159 38.039062 22.339844 C 39.017275 23.862305 40.562986 25 42.5 25 C 43.046093 25 43.481823 24.71495 43.978516 24.564453 C 43.983126 24.708295 44 24.857178 44 25 C 44 35.505593 35.505593 44 25 44 C 14.494407 44 6 35.505593 6 25 C 6 14.494407 14.494407 6 25 6 z M 36.5 12 A 1.5 1.5 0 0 0 35 13.5 A 1.5 1.5 0 0 0 36.5 15 A 1.5 1.5 0 0 0 38 13.5 A 1.5 1.5 0 0 0 36.5 12 z M 21.5 15 A 1.5 1.5 0 0 0 20 16.5 A 1.5 1.5 0 0 0 21.5 18 A 1.5 1.5 0 0 0 23 16.5 A 1.5 1.5 0 0 0 21.5 15 z M 45 15 A 1 1 0 0 0 44 16 A 1 1 0 0 0 45 17 A 1 1 0 0 0 46 16 A 1 1 0 0 0 45 15 z M 15 20 A 3 3 0 0 0 12 23 A 3 3 0 0 0 15 26 A 3 3 0 0 0 18 23 A 3 3 0 0 0 15 20 z M 24.5 24 A 1.5 1.5 0 0 0 23 25.5 A 1.5 1.5 0 0 0 24.5 27 A 1.5 1.5 0 0 0 26 25.5 A 1.5 1.5 0 0 0 24.5 24 z M 17 31 A 2 2 0 0 0 15 33 A 2 2 0 0 0 17 35 A 2 2 0 0 0 19 33 A 2 2 0 0 0 17 31 z M 30.5 32 A 2.5 2.5 0 0 0 28 34.5 A 2.5 2.5 0 0 0 30.5 37 A 2.5 2.5 0 0 0 33 34.5 A 2.5 2.5 0 0 0 30.5 32 z"></path></svg>